<svg xmlns="http://www.w3.org/2000/svg" width="24" height="24" viewBox="0 0 24 24" fill="none">
<path d="M21.5 21V18.0541C21.5 17.9355 21.4528 17.8214 21.3673 17.7387L16.2305 12.632C16.145 12.547 16.0325 12.5 15.9132 12.5H8.08675C7.9675 12.5 7.85275 12.547 7.7695 12.632L2.63275 17.7387C2.54725 17.8237 2.5 17.9355 2.5 18.0541V21C2.5 21.2461 2.7025 21.4474 2.95 21.4474H3.85C4.0975 21.4474 4.3 21.2461 4.3 21V19.7205C4.3 19.0092 4.5835 18.327 5.08975 17.8214L7.85275 15.0746C8.359 14.5713 9.04525 14.2895 9.763 14.2895H14.2347C14.9502 14.2895 15.6365 14.5713 16.145 15.0746L18.908 17.8214C19.4143 18.3247 19.6977 19.007 19.6977 19.7205V21C19.6977 21.2461 19.9002 21.4474 20.1477 21.4474H21.0477C21.2952 21.4474 21.4977 21.2461 21.4977 21H21.5Z" fill="#1C1C1B"/>
<path fill-rule="evenodd" clip-rule="evenodd" d="M12.0002 4.1C10.509 4.1 9.3002 5.30883 9.3002 6.8C9.3002 8.29117 10.509 9.5 12.0002 9.5C13.4914 9.5 14.7002 8.29117 14.7002 6.8C14.7002 5.30883 13.4914 4.1 12.0002 4.1ZM7.7002 6.8C7.7002 4.42518 9.62537 2.5 12.0002 2.5C14.375 2.5 16.3002 4.42518 16.3002 6.8C16.3002 9.17482 14.375 11.1 12.0002 11.1C9.62537 11.1 7.7002 9.17482 7.7002 6.8Z" fill="#1C1C1B"/>
</svg>