<svg xmlns="http://www.w3.org/2000/svg" width="18" height="18" viewBox="0 0 18 18" fill="none">
  <path d="M6.86699 4.49994C6.79527 4.49994 6.72355 4.52807 6.66871 4.58291L6.27074 4.98088C6.16105 5.09057 6.16105 5.26916 6.27074 5.37885L9.14512 8.25322C9.80465 8.91275 9.80465 9.9801 9.14512 10.6396L6.27074 13.514C6.16105 13.6237 6.16105 13.8023 6.27074 13.912L6.66871 14.3099C6.72355 14.3648 6.79527 14.3929 6.86699 14.3929C6.93871 14.3929 7.01043 14.3648 7.06527 14.3099L11.7298 9.64541C11.8395 9.53572 11.8395 9.35713 11.7298 9.24744L7.06527 4.5815C7.01043 4.52666 6.93871 4.49854 6.86699 4.49854V4.49994Z" fill="black"/>
</svg>