<svg width="30" height="30" viewBox="0 0 30 30" fill="none" xmlns="http://www.w3.org/2000/svg">
    <path d="M21.3381 13.8281L10.9078 13.8281C10.6285 13.8281 10.4 14.0566 10.4 14.3359V15.3516C10.4 15.6309 10.6285 15.8594 10.9078 15.8594L21.3381 15.8594C22.1227 15.8594 22.6051 16.7074 22.2115 17.3879C21.691 18.2842 21.361 19.3074 21.2797 20.3941C21.2569 20.6887 21.493 20.9375 21.7875 20.9375H22.7828C23.0621 20.9375 23.2906 20.709 23.2906 20.4297C23.5293 18.0303 25.459 16.098 27.861 15.8594C28.1403 15.8594 28.3688 15.6309 28.3688 15.3516V14.3359C28.3688 14.0566 28.1403 13.8281 27.861 13.8281C25.459 13.5895 23.5293 11.6572 23.2906 9.25781C23.2906 8.97852 23.0621 8.75 22.7828 8.75H21.7875C21.493 8.75 21.2569 8.99883 21.2797 9.29336C21.3635 10.3826 21.691 11.4033 22.2115 12.2996C22.6051 12.9775 22.1227 13.8281 21.3381 13.8281Z" fill="#1C1C1B"/>
    <path d="M18.25 5.75342H8.75C7.0925 5.75342 5.75 7.09822 5.75 8.75856L5.75 21.2414C5.75 22.9018 7.0925 24.2466 8.75 24.2466H18.25C18.525 24.2466 18.75 24.472 18.75 24.7474V25.7491C18.75 26.0246 18.525 26.25 18.25 26.25H4.25C3.975 26.25 3.75 26.0246 3.75 25.7491L3.75 4.25085C3.75 3.97538 3.975 3.75 4.25 3.75H18.25C18.525 3.75 18.75 3.97538 18.75 4.25085V5.25257C18.75 5.52804 18.525 5.75342 18.25 5.75342Z" fill="#1C1C1B"/>
</svg>
